<svg class="main-svg" xmlns="http://www.w3.org/2000/svg" xmlns:xlink="http://www.w3.org/1999/xlink" width="1000" height="650" style="" viewBox="0 0 1000 650"><rect x="0" y="0" width="1000" height="650" style="fill: rgb(255, 255, 255); fill-opacity: 1;"/><defs id="defs-caa6e8"><g class="clips"><clipPath id="clipcaa6e8xyplot" class="plotclip"><rect width="743" height="470"/></clipPath><clipPath class="axesclip" id="clipcaa6e8x"><rect x="80" y="0" width="743" height="650"/></clipPath><clipPath class="axesclip" id="clipcaa6e8y"><rect x="0" y="110" width="1000" height="470"/></clipPath><clipPath class="axesclip" id="clipcaa6e8xy"><rect x="80" y="110" width="743" height="470"/></clipPath></g><g class="gradients"/><g class="patterns"/></defs><g class="bglayer"/><g class="layer-below"><g class="imagelayer"/><g class="shapelayer"/></g><g class="cartesianlayer"><g class="subplot xy"><g class="layer-subplot"><g class="shapelayer"/><g class="imagelayer"/></g><g class="minor-gridlayer"><g class="x"/><g class="y"/></g><g class="gridlayer"><g class="x"><path class="xgrid crisp" transform="translate(98.78,0)" d="M0,110v470" style="stroke: rgb(232, 232, 230); stroke-opacity: 1; stroke-width: 1px;"/><path class="xgrid crisp" transform="translate(227.38,0)" d="M0,110v470" style="stroke: rgb(232, 232, 230); stroke-opacity: 1; stroke-width: 1px;"/><path class="xgrid crisp" transform="translate(355.99,0)" d="M0,110v470" style="stroke: rgb(232, 232, 230); stroke-opacity: 1; stroke-width: 1px;"/><path class="xgrid crisp" transform="translate(484.6,0)" d="M0,110v470" style="stroke: rgb(232, 232, 230); stroke-opacity: 1; stroke-width: 1px;"/><path class="xgrid crisp" transform="translate(613.2,0)" d="M0,110v470" style="stroke: rgb(232, 232, 230); stroke-opacity: 1; stroke-width: 1px;"/><path class="xgrid crisp" transform="translate(741.81,0)" d="M0,110v470" style="stroke: rgb(232, 232, 230); stroke-opacity: 1; stroke-width: 1px;"/></g><g class="y"><path class="ygrid crisp" transform="translate(0,521.94)" d="M80,0h743" style="stroke: rgb(232, 232, 230); stroke-opacity: 1; stroke-width: 1px;"/><path class="ygrid crisp" transform="translate(0,448.45)" d="M80,0h743" style="stroke: rgb(232, 232, 230); stroke-opacity: 1; stroke-width: 1px;"/><path class="ygrid crisp" transform="translate(0,374.97)" d="M80,0h743" style="stroke: rgb(232, 232, 230); stroke-opacity: 1; stroke-width: 1px;"/><path class="ygrid crisp" transform="translate(0,301.48)" d="M80,0h743" style="stroke: rgb(232, 232, 230); stroke-opacity: 1; stroke-width: 1px;"/><path class="ygrid crisp" transform="translate(0,227.99)" d="M80,0h743" style="stroke: rgb(232, 232, 230); stroke-opacity: 1; stroke-width: 1px;"/><path class="ygrid crisp" transform="translate(0,154.5)" d="M80,0h743" style="stroke: rgb(232, 232, 230); stroke-opacity: 1; stroke-width: 1px;"/></g></g><g class="zerolinelayer"/><path class="xlines-below"/><path class="ylines-below"/><g class="overlines-below"/><g class="xaxislayer-below"/><g class="yaxislayer-below"/><g class="overaxes-below"/><g class="plot" transform="translate(80,110)"><g class="scatterlayer mlayer"><g class="trace scatter tracef2bb6e" style="stroke-miterlimit: 2; opacity: 1;"><g class="fills" clip-path="url(#clipcaa6e8xyplot)"/><g class="errorbars"/><g class="lines"><path class="js-line" d="M38.43,53.06L73.41,59.28L108.82,57.23L161.13,103.88L286.73,122.77L457.48,118.96L592.72,154.04L646.39,169.49L656.26,288.23L671.96,267.84" clip-path="url(#clipcaa6e8xyplot)" style="vector-effect: none; fill: none; stroke: rgb(196, 196, 192); stroke-opacity: 1; stroke-width: 1.5px; opacity: 1;"/></g><g class="points"><path class="point plotly-customdata" transform="translate(38.43,53.06)" d="M12.59,0A12.59,12.59 0 1,1 0,-12.59A12.59,12.59 0 0,1 12.59,0Z" style="opacity: 0.7; stroke-width: 1.5px; fill: rgb(42, 120, 214); fill-opacity: 1; stroke: rgb(255, 255, 255); stroke-opacity: 1;"/><path class="point plotly-customdata" transform="translate(73.41,59.28)" d="M9.87,0A9.87,9.87 0 1,1 0,-9.87A9.87,9.87 0 0,1 9.87,0Z" style="opacity: 0.7; stroke-width: 1.5px; fill: rgb(42, 120, 214); fill-opacity: 1; stroke: rgb(255, 255, 255); stroke-opacity: 1;"/><path class="point plotly-customdata" transform="translate(108.82,57.23)" d="M9.02,0A9.02,9.02 0 1,1 0,-9.02A9.02,9.02 0 0,1 9.02,0Z" style="opacity: 0.7; stroke-width: 1.5px; fill: rgb(42, 120, 214); fill-opacity: 1; stroke: rgb(255, 255, 255); stroke-opacity: 1;"/><path class="point plotly-customdata" transform="translate(161.13,103.88)" d="M12.44,0A12.44,12.44 0 1,1 0,-12.44A12.44,12.44 0 0,1 12.44,0Z" style="opacity: 0.7; stroke-width: 1.5px; fill: rgb(42, 120, 214); fill-opacity: 1; stroke: rgb(255, 255, 255); stroke-opacity: 1;"/><path class="point plotly-customdata" transform="translate(286.73,122.77)" d="M9.8,0A9.8,9.8 0 1,1 0,-9.8A9.8,9.8 0 0,1 9.8,0Z" style="opacity: 0.7; stroke-width: 1.5px; fill: rgb(42, 120, 214); fill-opacity: 1; stroke: rgb(255, 255, 255); stroke-opacity: 1;"/><path class="point plotly-customdata" transform="translate(457.48,118.96)" d="M8.29,0A8.29,8.29 0 1,1 0,-8.29A8.29,8.29 0 0,1 8.29,0Z" style="opacity: 0.7; stroke-width: 1.5px; fill: rgb(42, 120, 214); fill-opacity: 1; stroke: rgb(255, 255, 255); stroke-opacity: 1;"/><path class="point plotly-customdata" transform="translate(592.72,154.04)" d="M8.46,0A8.46,8.46 0 1,1 0,-8.46A8.46,8.46 0 0,1 8.46,0Z" style="opacity: 0.7; stroke-width: 1.5px; fill: rgb(42, 120, 214); fill-opacity: 1; stroke: rgb(255, 255, 255); stroke-opacity: 1;"/><path class="point plotly-customdata" transform="translate(646.39,169.49)" d="M7.91,0A7.91,7.91 0 1,1 0,-7.91A7.91,7.91 0 0,1 7.91,0Z" style="opacity: 0.7; stroke-width: 1.5px; fill: rgb(42, 120, 214); fill-opacity: 1; stroke: rgb(255, 255, 255); stroke-opacity: 1;"/><path class="point plotly-customdata" transform="translate(656.26,288.23)" d="M8.23,0A8.23,8.23 0 1,1 0,-8.23A8.23,8.23 0 0,1 8.23,0Z" style="opacity: 0.7; stroke-width: 1.5px; fill: rgb(42, 120, 214); fill-opacity: 1; stroke: rgb(255, 255, 255); stroke-opacity: 1;"/><path class="point plotly-customdata" transform="translate(671.96,267.84)" d="M7.78,0A7.78,7.78 0 1,1 0,-7.78A7.78,7.78 0 0,1 7.78,0Z" style="opacity: 0.7; stroke-width: 1.5px; fill: rgb(42, 120, 214); fill-opacity: 1; stroke: rgb(255, 255, 255); stroke-opacity: 1;"/></g><g class="text"/></g><g class="trace scatter trace217043" style="stroke-miterlimit: 2; opacity: 1;"><g class="fills" clip-path="url(#clipcaa6e8xyplot)"/><g class="errorbars"/><g class="lines"/><g class="points" clip-path="url(#clipcaa6e8xyplot)"/><g class="text" clip-path="url(#clipcaa6e8xyplot)"/></g><g class="trace scatter trace13572b" style="stroke-miterlimit: 2; opacity: 1;"><g class="fills" clip-path="url(#clipcaa6e8xyplot)"/><g class="errorbars"/><g class="lines"><path class="js-line" d="M207.62,144.71L257.43,135.11L328.44,191.07L370.4,192.19L389.89,228.14L455,209.37L466.03,155.36L516.89,177.5L565.68,200.84" clip-path="url(#clipcaa6e8xyplot)" style="vector-effect: none; fill: none; stroke: rgb(196, 196, 192); stroke-opacity: 1; stroke-width: 1.5px; opacity: 1;"/></g><g class="points"><path class="point plotly-customdata" transform="translate(207.62,144.71)" d="M12.65,0A12.65,12.65 0 1,1 0,-12.65A12.65,12.65 0 0,1 12.65,0Z" style="opacity: 0.7; stroke-width: 1.5px; fill: rgb(74, 58, 167); fill-opacity: 1; stroke: rgb(255, 255, 255); stroke-opacity: 1;"/><path class="point plotly-customdata" transform="translate(257.43,135.11)" d="M12.53,0A12.53,12.53 0 1,1 0,-12.53A12.53,12.53 0 0,1 12.53,0Z" style="opacity: 0.7; stroke-width: 1.5px; fill: rgb(74, 58, 167); fill-opacity: 1; stroke: rgb(255, 255, 255); stroke-opacity: 1;"/><path class="point plotly-customdata" transform="translate(328.44,191.07)" d="M11.78,0A11.78,11.78 0 1,1 0,-11.78A11.78,11.78 0 0,1 11.78,0Z" style="opacity: 0.7; stroke-width: 1.5px; fill: rgb(74, 58, 167); fill-opacity: 1; stroke: rgb(255, 255, 255); stroke-opacity: 1;"/><path class="point plotly-customdata" transform="translate(370.4,192.19)" d="M12.37,0A12.37,12.37 0 1,1 0,-12.37A12.37,12.37 0 0,1 12.37,0Z" style="opacity: 0.7; stroke-width: 1.5px; fill: rgb(74, 58, 167); fill-opacity: 1; stroke: rgb(255, 255, 255); stroke-opacity: 1;"/><path class="point plotly-customdata" transform="translate(389.89,228.14)" d="M11.6,0A11.6,11.6 0 1,1 0,-11.6A11.6,11.6 0 0,1 11.6,0Z" style="opacity: 0.7; stroke-width: 1.5px; fill: rgb(74, 58, 167); fill-opacity: 1; stroke: rgb(255, 255, 255); stroke-opacity: 1;"/><path class="point plotly-customdata" transform="translate(455,209.37)" d="M9.75,0A9.75,9.75 0 1,1 0,-9.75A9.75,9.75 0 0,1 9.75,0Z" style="opacity: 0.7; stroke-width: 1.5px; fill: rgb(74, 58, 167); fill-opacity: 1; stroke: rgb(255, 255, 255); stroke-opacity: 1;"/><path class="point plotly-customdata" transform="translate(466.03,155.36)" d="M8.67,0A8.67,8.67 0 1,1 0,-8.67A8.67,8.67 0 0,1 8.67,0Z" style="opacity: 0.7; stroke-width: 1.5px; fill: rgb(74, 58, 167); fill-opacity: 1; stroke: rgb(255, 255, 255); stroke-opacity: 1;"/><path class="point plotly-customdata" transform="translate(516.89,177.5)" d="M7.87,0A7.87,7.87 0 1,1 0,-7.87A7.87,7.87 0 0,1 7.87,0Z" style="opacity: 0.7; stroke-width: 1.5px; fill: rgb(74, 58, 167); fill-opacity: 1; stroke: rgb(255, 255, 255); stroke-opacity: 1;"/><path class="point plotly-customdata" transform="translate(565.68,200.84)" d="M7.95,0A7.95,7.95 0 1,1 0,-7.95A7.95,7.95 0 0,1 7.95,0Z" style="opacity: 0.7; stroke-width: 1.5px; fill: rgb(74, 58, 167); fill-opacity: 1; stroke: rgb(255, 255, 255); stroke-opacity: 1;"/></g><g class="text"/></g><g class="trace scatter trace667516" style="stroke-miterlimit: 2; opacity: 1;"><g class="fills" clip-path="url(#clipcaa6e8xyplot)"/><g class="errorbars"/><g class="lines"/><g class="points" clip-path="url(#clipcaa6e8xyplot)"/><g class="text" clip-path="url(#clipcaa6e8xyplot)"/></g><g class="trace scatter tracef3f77c" style="stroke-miterlimit: 2; opacity: 1;"><g class="fills" clip-path="url(#clipcaa6e8xyplot)"/><g class="errorbars"/><g class="lines"><path class="js-line" d="M151.51,239.5L237.61,243.66L269.04,230.77L318.75,213.92" clip-path="url(#clipcaa6e8xyplot)" style="vector-effect: none; fill: none; stroke: rgb(196, 196, 192); stroke-opacity: 1; stroke-width: 1.5px; opacity: 1;"/></g><g class="points"><path class="point plotly-customdata" transform="translate(151.51,239.5)" d="M12.39,0A12.39,12.39 0 1,1 0,-12.39A12.39,12.39 0 0,1 12.39,0Z" style="opacity: 0.7; stroke-width: 1.5px; fill: rgb(235, 104, 52); fill-opacity: 1; stroke: rgb(255, 255, 255); stroke-opacity: 1;"/><path class="point plotly-customdata" transform="translate(237.61,243.66)" d="M9.53,0A9.53,9.53 0 1,1 0,-9.53A9.53,9.53 0 0,1 9.53,0Z" style="opacity: 0.7; stroke-width: 1.5px; fill: rgb(235, 104, 52); fill-opacity: 1; stroke: rgb(255, 255, 255); stroke-opacity: 1;"/><path class="point plotly-customdata" transform="translate(269.04,230.77)" d="M8.94,0A8.94,8.94 0 1,1 0,-8.94A8.94,8.94 0 0,1 8.94,0Z" style="opacity: 0.7; stroke-width: 1.5px; fill: rgb(235, 104, 52); fill-opacity: 1; stroke: rgb(255, 255, 255); stroke-opacity: 1;"/><path class="point plotly-customdata" transform="translate(318.75,213.92)" d="M7.65,0A7.65,7.65 0 1,1 0,-7.65A7.65,7.65 0 0,1 7.65,0Z" style="opacity: 0.7; stroke-width: 1.5px; fill: rgb(235, 104, 52); fill-opacity: 1; stroke: rgb(255, 255, 255); stroke-opacity: 1;"/></g><g class="text"/></g><g class="trace scatter tracea0d2d3" style="stroke-miterlimit: 2; opacity: 1;"><g class="fills" clip-path="url(#clipcaa6e8xyplot)"/><g class="errorbars"/><g class="lines"/><g class="points" clip-path="url(#clipcaa6e8xyplot)"/><g class="text" clip-path="url(#clipcaa6e8xyplot)"/></g><g class="trace scatter tracebcb14d" style="stroke-miterlimit: 2; opacity: 1;"><g class="fills" clip-path="url(#clipcaa6e8xyplot)"/><g class="errorbars"/><g class="lines"><path class="js-line" d="M243.45,416.5L367.92,422.09L522.93,432.1L598.36,426.81L678.95,395.4" clip-path="url(#clipcaa6e8xyplot)" style="vector-effect: none; fill: none; stroke: rgb(196, 196, 192); stroke-opacity: 1; stroke-width: 1.5px; opacity: 1;"/></g><g class="points"><path class="point plotly-customdata" transform="translate(243.45,416.5)" d="M12.47,0A12.47,12.47 0 1,1 0,-12.47A12.47,12.47 0 0,1 12.47,0Z" style="opacity: 0.7; stroke-width: 1.5px; fill: rgb(27, 175, 122); fill-opacity: 1; stroke: rgb(255, 255, 255); stroke-opacity: 1;"/><path class="point plotly-customdata" transform="translate(367.92,422.09)" d="M12.24,0A12.24,12.24 0 1,1 0,-12.24A12.24,12.24 0 0,1 12.24,0Z" style="opacity: 0.7; stroke-width: 1.5px; fill: rgb(27, 175, 122); fill-opacity: 1; stroke: rgb(255, 255, 255); stroke-opacity: 1;"/><path class="point plotly-customdata" transform="translate(522.93,432.1)" d="M11.68,0A11.68,11.68 0 1,1 0,-11.68A11.68,11.68 0 0,1 11.68,0Z" style="opacity: 0.7; stroke-width: 1.5px; fill: rgb(27, 175, 122); fill-opacity: 1; stroke: rgb(255, 255, 255); stroke-opacity: 1;"/><path class="point plotly-customdata" transform="translate(598.36,426.81)" d="M9.65,0A9.65,9.65 0 1,1 0,-9.65A9.65,9.65 0 0,1 9.65,0Z" style="opacity: 0.7; stroke-width: 1.5px; fill: rgb(27, 175, 122); fill-opacity: 1; stroke: rgb(255, 255, 255); stroke-opacity: 1;"/><path class="point plotly-customdata" transform="translate(678.95,395.4)" d="M8.66,0A8.66,8.66 0 1,1 0,-8.66A8.66,8.66 0 0,1 8.66,0Z" style="opacity: 0.7; stroke-width: 1.5px; fill: rgb(27, 175, 122); fill-opacity: 1; stroke: rgb(255, 255, 255); stroke-opacity: 1;"/></g><g class="text"/></g><g class="trace scatter tracef402b3" style="stroke-miterlimit: 2; opacity: 1;"><g class="fills" clip-path="url(#clipcaa6e8xyplot)"/><g class="errorbars"/><g class="lines"/><g class="points" clip-path="url(#clipcaa6e8xyplot)"/><g class="text" clip-path="url(#clipcaa6e8xyplot)"/></g><g class="trace scatter traceedf0f3" style="stroke-miterlimit: 2; opacity: 1;"><g class="fills" clip-path="url(#clipcaa6e8xyplot)"/><g class="errorbars"/><g class="lines"/><g class="points" clip-path="url(#clipcaa6e8xyplot)"/><g class="text" clip-path="url(#clipcaa6e8xyplot)"/></g><g class="trace scatter trace6b3763" style="stroke-miterlimit: 2; opacity: 1;"><g class="fills" clip-path="url(#clipcaa6e8xyplot)"/><g class="errorbars"/><g class="lines"/><g class="points" clip-path="url(#clipcaa6e8xyplot)"/><g class="text" clip-path="url(#clipcaa6e8xyplot)"/></g><g class="trace scatter trace48ac98" style="stroke-miterlimit: 2; opacity: 1;"><g class="fills" clip-path="url(#clipcaa6e8xyplot)"/><g class="errorbars"/><g class="lines"/><g class="points" clip-path="url(#clipcaa6e8xyplot)"/><g class="text" clip-path="url(#clipcaa6e8xyplot)"/></g></g></g><g class="overplot"/><path class="xlines-above crisp" d="M79,580.5H823" style="fill: none; stroke-width: 1px; stroke: rgb(232, 232, 230); stroke-opacity: 1;"/><path class="ylines-above crisp" d="M79.5,110V580" style="fill: none; stroke-width: 1px; stroke: rgb(232, 232, 230); stroke-opacity: 1;"/><g class="overlines-above"/><g class="xaxislayer-above"><path class="xtick ticks crisp" d="M0,581v5" transform="translate(98.78,0)" style="stroke: rgb(232, 232, 230); stroke-opacity: 1; stroke-width: 1px;"/><path class="xtick ticks crisp" d="M0,581v5" transform="translate(227.38,0)" style="stroke: rgb(232, 232, 230); stroke-opacity: 1; stroke-width: 1px;"/><path class="xtick ticks crisp" d="M0,581v5" transform="translate(355.99,0)" style="stroke: rgb(232, 232, 230); stroke-opacity: 1; stroke-width: 1px;"/><path class="xtick ticks crisp" d="M0,581v5" transform="translate(484.6,0)" style="stroke: rgb(232, 232, 230); stroke-opacity: 1; stroke-width: 1px;"/><path class="xtick ticks crisp" d="M0,581v5" transform="translate(613.2,0)" style="stroke: rgb(232, 232, 230); stroke-opacity: 1; stroke-width: 1px;"/><path class="xtick ticks crisp" d="M0,581v5" transform="translate(741.81,0)" style="stroke: rgb(232, 232, 230); stroke-opacity: 1; stroke-width: 1px;"/><g class="xtick"><text text-anchor="middle" x="0" y="600.4" transform="translate(98.78,0)" style="font-family: Helvetica, Arial, sans-serif; font-size: 12px; fill: rgb(107, 107, 104); fill-opacity: 1; white-space: pre; opacity: 1;">4.0</text></g><g class="xtick"><text text-anchor="middle" x="0" y="600.4" style="font-family: Helvetica, Arial, sans-serif; font-size: 12px; fill: rgb(107, 107, 104); fill-opacity: 1; white-space: pre; opacity: 1;" transform="translate(227.38,0)">6.0</text></g><g class="xtick"><text text-anchor="middle" x="0" y="600.4" style="font-family: Helvetica, Arial, sans-serif; font-size: 12px; fill: rgb(107, 107, 104); fill-opacity: 1; white-space: pre; opacity: 1;" transform="translate(355.99,0)">8.0</text></g><g class="xtick"><text text-anchor="middle" x="0" y="600.4" style="font-family: Helvetica, Arial, sans-serif; font-size: 12px; fill: rgb(107, 107, 104); fill-opacity: 1; white-space: pre; opacity: 1;" transform="translate(484.6,0)">10.0</text></g><g class="xtick"><text text-anchor="middle" x="0" y="600.4" style="font-family: Helvetica, Arial, sans-serif; font-size: 12px; fill: rgb(107, 107, 104); fill-opacity: 1; white-space: pre; opacity: 1;" transform="translate(613.2,0)">12.0</text></g><g class="xtick"><text text-anchor="middle" x="0" y="600.4" style="font-family: Helvetica, Arial, sans-serif; font-size: 12px; fill: rgb(107, 107, 104); fill-opacity: 1; white-space: pre; opacity: 1;" transform="translate(741.81,0)">14.0</text></g></g><g class="yaxislayer-above"><path class="ytick ticks crisp" d="M79,0h-5" transform="translate(0,521.94)" style="stroke: rgb(232, 232, 230); stroke-opacity: 1; stroke-width: 1px;"/><path class="ytick ticks crisp" d="M79,0h-5" transform="translate(0,448.45)" style="stroke: rgb(232, 232, 230); stroke-opacity: 1; stroke-width: 1px;"/><path class="ytick ticks crisp" d="M79,0h-5" transform="translate(0,374.97)" style="stroke: rgb(232, 232, 230); stroke-opacity: 1; stroke-width: 1px;"/><path class="ytick ticks crisp" d="M79,0h-5" transform="translate(0,301.48)" style="stroke: rgb(232, 232, 230); stroke-opacity: 1; stroke-width: 1px;"/><path class="ytick ticks crisp" d="M79,0h-5" transform="translate(0,227.99)" style="stroke: rgb(232, 232, 230); stroke-opacity: 1; stroke-width: 1px;"/><path class="ytick ticks crisp" d="M79,0h-5" transform="translate(0,154.5)" style="stroke: rgb(232, 232, 230); stroke-opacity: 1; stroke-width: 1px;"/><g class="ytick"><text text-anchor="end" x="71.6" y="4.199999999999999" transform="translate(0,521.94)" style="font-family: Helvetica, Arial, sans-serif; font-size: 12px; fill: rgb(107, 107, 104); fill-opacity: 1; white-space: pre; opacity: 1;">2,000</text></g><g class="ytick"><text text-anchor="end" x="71.6" y="4.199999999999999" style="font-family: Helvetica, Arial, sans-serif; font-size: 12px; fill: rgb(107, 107, 104); fill-opacity: 1; white-space: pre; opacity: 1;" transform="translate(0,448.45)">3,000</text></g><g class="ytick"><text text-anchor="end" x="71.6" y="4.199999999999999" style="font-family: Helvetica, Arial, sans-serif; font-size: 12px; fill: rgb(107, 107, 104); fill-opacity: 1; white-space: pre; opacity: 1;" transform="translate(0,374.97)">4,000</text></g><g class="ytick"><text text-anchor="end" x="71.6" y="4.199999999999999" style="font-family: Helvetica, Arial, sans-serif; font-size: 12px; fill: rgb(107, 107, 104); fill-opacity: 1; white-space: pre; opacity: 1;" transform="translate(0,301.48)">5,000</text></g><g class="ytick"><text text-anchor="end" x="71.6" y="4.199999999999999" style="font-family: Helvetica, Arial, sans-serif; font-size: 12px; fill: rgb(107, 107, 104); fill-opacity: 1; white-space: pre; opacity: 1;" transform="translate(0,227.99)">6,000</text></g><g class="ytick"><text text-anchor="end" x="71.6" y="4.199999999999999" style="font-family: Helvetica, Arial, sans-serif; font-size: 12px; fill: rgb(107, 107, 104); fill-opacity: 1; white-space: pre; opacity: 1;" transform="translate(0,154.5)">7,000</text></g></g><g class="overaxes-above"/></g></g><g class="polarlayer"/><g class="smithlayer"/><g class="ternarylayer"/><g class="geolayer"/><g class="funnelarealayer"/><g class="pielayer"/><g class="iciclelayer"/><g class="treemaplayer"/><g class="sunburstlayer"/><g class="glimages"/><defs id="topdefs-caa6e8"><g class="clips"/><clipPath id="legendcaa6e8"><rect width="150" height="193" x="0" y="0"/></clipPath></defs><g class="layer-above"><g class="imagelayer"/><g class="shapelayer"/></g><g class="infolayer"><g class="legend" pointer-events="all" transform="translate(837.86,110)"><rect class="bg" shape-rendering="crispEdges" width="150" height="193" x="0" y="0" style="stroke: rgb(68, 68, 68); stroke-opacity: 1; fill: rgb(255, 255, 255); fill-opacity: 1; stroke-width: 0px;"/><g class="scrollbox" transform="" clip-path="url(#legendcaa6e8)"><g class="groups" transform=""><g class="traces" transform="translate(0,14.950000000000001)" style="opacity: 1;"><text class="legendtext" text-anchor="start" x="5" y="5.07" style="font-family: Helvetica, Arial, sans-serif; font-size: 13px; fill: rgb(28, 28, 27); fill-opacity: 1; white-space: pre;">Compressor</text><g class="layers"><g class="legendfill"/><g class="legendlines"/><g class="legendsymbols"><g class="legendpoints"/></g></g><rect class="legendtoggle" x="0" y="-9.950000000000001" width="144.734375" height="19.900000000000002" style="fill: rgb(0, 0, 0); fill-opacity: 0;"/></g><g class="traces" transform="translate(0,34.400000000000006)" style="opacity: 1;"><text class="legendtext" text-anchor="start" x="40" y="4.680000000000001" style="font-family: Helvetica, Arial, sans-serif; font-size: 12px; fill: rgb(28, 28, 27); fill-opacity: 1; white-space: pre;">OpenZL (trained)</text><g class="layers" style="opacity: 1;"><g class="legendfill"/><g class="legendlines"><path class="js-line" d="M5,0h30" style="fill: none; stroke: rgb(196, 196, 192); stroke-opacity: 1; stroke-width: 1.5px;"/></g><g class="legendsymbols"><g class="legendpoints"><path class="scatterpts" transform="translate(20,0)" d="M6,0A6,6 0 1,1 0,-6A6,6 0 0,1 6,0Z" style="opacity: 1; stroke-width: 2px; fill: rgb(42, 120, 214); fill-opacity: 1; stroke: rgb(255, 255, 255); stroke-opacity: 1;"/></g></g></g><rect class="legendtoggle" x="0" y="-9.5" width="144.734375" height="19" style="fill: rgb(0, 0, 0); fill-opacity: 0;"/></g><g class="traces" transform="translate(0,53.400000000000006)" style="opacity: 1;"><text class="legendtext" text-anchor="start" x="40" y="4.680000000000001" style="font-family: Helvetica, Arial, sans-serif; font-size: 12px; fill: rgb(28, 28, 27); fill-opacity: 1; white-space: pre;">OpenZL (untrained)</text><g class="layers" style="opacity: 1;"><g class="legendfill"/><g class="legendlines"><path class="js-line" d="M5,0h30" style="fill: none; stroke: rgb(196, 196, 192); stroke-opacity: 1; stroke-width: 1.5px;"/></g><g class="legendsymbols"><g class="legendpoints"><path class="scatterpts" transform="translate(20,0)" d="M6,0A6,6 0 1,1 0,-6A6,6 0 0,1 6,0Z" style="opacity: 1; stroke-width: 2px; fill: rgb(74, 58, 167); fill-opacity: 1; stroke: rgb(255, 255, 255); stroke-opacity: 1;"/></g></g></g><rect class="legendtoggle" x="0" y="-9.5" width="144.734375" height="19" style="fill: rgb(0, 0, 0); fill-opacity: 0;"/></g><g class="traces" transform="translate(0,72.4)" style="opacity: 1;"><text class="legendtext" text-anchor="start" x="40" y="4.680000000000001" style="font-family: Helvetica, Arial, sans-serif; font-size: 12px; fill: rgb(28, 28, 27); fill-opacity: 1; white-space: pre;">lz4</text><g class="layers" style="opacity: 1;"><g class="legendfill"/><g class="legendlines"><path class="js-line" d="M5,0h30" style="fill: none; stroke: rgb(196, 196, 192); stroke-opacity: 1; stroke-width: 1.5px;"/></g><g class="legendsymbols"><g class="legendpoints"><path class="scatterpts" transform="translate(20,0)" d="M6,0A6,6 0 1,1 0,-6A6,6 0 0,1 6,0Z" style="opacity: 1; stroke-width: 2px; fill: rgb(235, 104, 52); fill-opacity: 1; stroke: rgb(255, 255, 255); stroke-opacity: 1;"/></g></g></g><rect class="legendtoggle" x="0" y="-9.5" width="144.734375" height="19" style="fill: rgb(0, 0, 0); fill-opacity: 0;"/></g><g class="traces" transform="translate(0,91.4)" style="opacity: 1;"><text class="legendtext" text-anchor="start" x="40" y="4.680000000000001" style="font-family: Helvetica, Arial, sans-serif; font-size: 12px; fill: rgb(28, 28, 27); fill-opacity: 1; white-space: pre;">zstd</text><g class="layers" style="opacity: 1;"><g class="legendfill"/><g class="legendlines"><path class="js-line" d="M5,0h30" style="fill: none; stroke: rgb(196, 196, 192); stroke-opacity: 1; stroke-width: 1.5px;"/></g><g class="legendsymbols"><g class="legendpoints"><path class="scatterpts" transform="translate(20,0)" d="M6,0A6,6 0 1,1 0,-6A6,6 0 0,1 6,0Z" style="opacity: 1; stroke-width: 2px; fill: rgb(27, 175, 122); fill-opacity: 1; stroke: rgb(255, 255, 255); stroke-opacity: 1;"/></g></g></g><rect class="legendtoggle" x="0" y="-9.5" width="144.734375" height="19" style="fill: rgb(0, 0, 0); fill-opacity: 0;"/></g></g><g class="groups" transform="translate(0,10)"><g class="traces" transform="translate(0,110.85000000000001)" style="opacity: 1;"><text class="legendtext" text-anchor="start" x="5" y="5.07" style="font-family: Helvetica, Arial, sans-serif; font-size: 13px; fill: rgb(28, 28, 27); fill-opacity: 1; white-space: pre;">Compression speed</text><g class="layers"><g class="legendfill"/><g class="legendlines"/><g class="legendsymbols"><g class="legendpoints"/></g></g><rect class="legendtoggle" x="0" y="-9.950000000000001" width="144.734375" height="19.900000000000002" style="fill: rgb(0, 0, 0); fill-opacity: 0;"/></g><g class="traces" transform="translate(0,130.3)" style="opacity: 1;"><text class="legendtext" text-anchor="start" x="40" y="4.680000000000001" style="font-family: Helvetica, Arial, sans-serif; font-size: 12px; fill: rgb(28, 28, 27); fill-opacity: 1; white-space: pre;">10 MB/s</text><g class="layers" style="opacity: 1;"><g class="legendfill"/><g class="legendlines"/><g class="legendsymbols"><g class="legendpoints"><path class="scatterpts" transform="translate(20,0)" d="M3,0A3,3 0 1,1 0,-3A3,3 0 0,1 3,0Z" style="opacity: 1; stroke-width: 1.5px; fill: rgb(107, 107, 104); fill-opacity: 1; stroke: rgb(255, 255, 255); stroke-opacity: 1;"/></g></g></g><rect class="legendtoggle" x="0" y="-9.5" width="144.734375" height="19" style="fill: rgb(0, 0, 0); fill-opacity: 0;"/></g><g class="traces" transform="translate(0,149.3)" style="opacity: 1;"><text class="legendtext" text-anchor="start" x="40" y="4.680000000000001" style="font-family: Helvetica, Arial, sans-serif; font-size: 12px; fill: rgb(28, 28, 27); fill-opacity: 1; white-space: pre;">100 MB/s</text><g class="layers" style="opacity: 1;"><g class="legendfill"/><g class="legendlines"/><g class="legendsymbols"><g class="legendpoints"><path class="scatterpts" transform="translate(20,0)" d="M7.78,0A7.78,7.78 0 1,1 0,-7.78A7.78,7.78 0 0,1 7.78,0Z" style="opacity: 1; stroke-width: 1.5px; fill: rgb(107, 107, 104); fill-opacity: 1; stroke: rgb(255, 255, 255); stroke-opacity: 1;"/></g></g></g><rect class="legendtoggle" x="0" y="-9.5" width="144.734375" height="19" style="fill: rgb(0, 0, 0); fill-opacity: 0;"/></g><g class="traces" transform="translate(0,168.3)" style="opacity: 1;"><text class="legendtext" text-anchor="start" x="40" y="4.680000000000001" style="font-family: Helvetica, Arial, sans-serif; font-size: 12px; fill: rgb(28, 28, 27); fill-opacity: 1; white-space: pre;">1,000 MB/s</text><g class="layers" style="opacity: 1;"><g class="legendfill"/><g class="legendlines"/><g class="legendsymbols"><g class="legendpoints"><path class="scatterpts" transform="translate(20,0)" d="M8,0A8,8 0 1,1 0,-8A8,8 0 0,1 8,0Z" style="opacity: 1; stroke-width: 1.5px; fill: rgb(107, 107, 104); fill-opacity: 1; stroke: rgb(255, 255, 255); stroke-opacity: 1;"/></g></g></g><rect class="legendtoggle" x="0" y="-9.5" width="144.734375" height="19" style="fill: rgb(0, 0, 0); fill-opacity: 0;"/></g></g></g><rect class="scrollbar" rx="20" ry="3" width="0" height="0" x="0" y="0" style="fill: rgb(128, 139, 164); fill-opacity: 1;"/></g><g class="g-gtitle"><text class="gtitle" x="500" y="55" text-anchor="middle" dy="0em" style="font-family: Helvetica, Arial, sans-serif; font-size: 18px; fill: rgb(28, 28, 27); opacity: 1; font-weight: normal; white-space: pre;">Silesia nci (trained): Decompression Speed vs. Compression Ratio</text></g><g class="g-xtitle"><text class="xtitle" x="451.5" y="627.70625" text-anchor="middle" style="font-family: Helvetica, Arial, sans-serif; font-size: 14px; fill: rgb(28, 28, 27); opacity: 1; font-weight: normal; white-space: pre;">Compression Ratio</text></g><g class="g-ytitle"><text class="ytitle" transform="rotate(-90,17.262500000000003,345)" x="17.262500000000003" y="345" text-anchor="middle" style="font-family: Helvetica, Arial, sans-serif; font-size: 14px; fill: rgb(28, 28, 27); opacity: 1; font-weight: normal; white-space: pre;">Decompression Speed (MB/s)</text></g></g></svg>