<svg class="main-svg" xmlns="http://www.w3.org/2000/svg" xmlns:xlink="http://www.w3.org/1999/xlink" width="1000" height="650" style="" viewBox="0 0 1000 650"><rect x="0" y="0" width="1000" height="650" style="fill: rgb(255, 255, 255); fill-opacity: 1;"/><defs id="defs-74ec9c"><g class="clips"><clipPath id="clip74ec9cxyplot" class="plotclip"><rect width="741" height="470"/></clipPath><clipPath class="axesclip" id="clip74ec9cx"><rect x="82" y="0" width="741" height="650"/></clipPath><clipPath class="axesclip" id="clip74ec9cy"><rect x="0" y="110" width="1000" height="470"/></clipPath><clipPath class="axesclip" id="clip74ec9cxy"><rect x="82" y="110" width="741" height="470"/></clipPath></g><g class="gradients"/><g class="patterns"/></defs><g class="bglayer"/><g class="layer-below"><g class="imagelayer"/><g class="shapelayer"/></g><g class="cartesianlayer"><g class="subplot xy"><g class="layer-subplot"><g class="shapelayer"/><g class="imagelayer"/></g><g class="minor-gridlayer"><g class="x"/><g class="y"/></g><g class="gridlayer"><g class="x"><path class="xgrid crisp" transform="translate(124.03999999999999,0)" d="M0,110v470" style="stroke: rgb(232, 232, 230); stroke-opacity: 1; stroke-width: 1px;"/><path class="xgrid crisp" transform="translate(172.68,0)" d="M0,110v470" style="stroke: rgb(232, 232, 230); stroke-opacity: 1; stroke-width: 1px;"/><path class="xgrid crisp" transform="translate(213.81,0)" d="M0,110v470" style="stroke: rgb(232, 232, 230); stroke-opacity: 1; stroke-width: 1px;"/><path class="xgrid crisp" transform="translate(249.44,0)" d="M0,110v470" style="stroke: rgb(232, 232, 230); stroke-opacity: 1; stroke-width: 1px;"/><path class="xgrid crisp" transform="translate(280.86,0)" d="M0,110v470" style="stroke: rgb(232, 232, 230); stroke-opacity: 1; stroke-width: 1px;"/><path class="xgrid crisp" transform="translate(308.97,0)" d="M0,110v470" style="stroke: rgb(232, 232, 230); stroke-opacity: 1; stroke-width: 1px;"/><path class="xgrid crisp" transform="translate(493.9,0)" d="M0,110v470" style="stroke: rgb(232, 232, 230); stroke-opacity: 1; stroke-width: 1px;"/><path class="xgrid crisp" transform="translate(602.08,0)" d="M0,110v470" style="stroke: rgb(232, 232, 230); stroke-opacity: 1; stroke-width: 1px;"/><path class="xgrid crisp" transform="translate(678.83,0)" d="M0,110v470" style="stroke: rgb(232, 232, 230); stroke-opacity: 1; stroke-width: 1px;"/><path class="xgrid crisp" transform="translate(738.37,0)" d="M0,110v470" style="stroke: rgb(232, 232, 230); stroke-opacity: 1; stroke-width: 1px;"/><path class="xgrid crisp" transform="translate(787.01,0)" d="M0,110v470" style="stroke: rgb(232, 232, 230); stroke-opacity: 1; stroke-width: 1px;"/></g><g class="y"><path class="ygrid crisp" transform="translate(0,509)" d="M82,0h741" style="stroke: rgb(232, 232, 230); stroke-opacity: 1; stroke-width: 1px;"/><path class="ygrid crisp" transform="translate(0,438.36)" d="M82,0h741" style="stroke: rgb(232, 232, 230); stroke-opacity: 1; stroke-width: 1px;"/><path class="ygrid crisp" transform="translate(0,367.72)" d="M82,0h741" style="stroke: rgb(232, 232, 230); stroke-opacity: 1; stroke-width: 1px;"/><path class="ygrid crisp" transform="translate(0,297.07)" d="M82,0h741" style="stroke: rgb(232, 232, 230); stroke-opacity: 1; stroke-width: 1px;"/><path class="ygrid crisp" transform="translate(0,226.43)" d="M82,0h741" style="stroke: rgb(232, 232, 230); stroke-opacity: 1; stroke-width: 1px;"/><path class="ygrid crisp" transform="translate(0,155.78)" d="M82,0h741" style="stroke: rgb(232, 232, 230); stroke-opacity: 1; stroke-width: 1px;"/></g></g><g class="zerolinelayer"/><path class="xlines-below"/><path class="ylines-below"/><g class="overlines-below"/><g class="xaxislayer-below"/><g class="yaxislayer-below"/><g class="overaxes-below"/><g class="plot" transform="translate(82,110)"><g class="scatterlayer mlayer"><g class="trace scatter tracebc7e24" style="stroke-miterlimit: 2; opacity: 1;"><g class="fills" clip-path="url(#clip74ec9cxyplot)"/><g class="errorbars"/><g class="lines"><path class="js-line" d="M39,177.99L64.76,53.06L123.18,59.22L200.52,168.22L315,220.92L408.09,255.46L494.8,270.28L586.55,258.63L637.09,276.99L674.65,345.7L689,399.89" clip-path="url(#clip74ec9cxyplot)" style="vector-effect: none; fill: none; stroke: rgb(196, 196, 192); stroke-opacity: 1; stroke-width: 1.5px; opacity: 1;"/></g><g class="points"><path class="point plotly-customdata" transform="translate(39,177.99)" d="M14,0A14,14 0 1,1 0,-14A14,14 0 0,1 14,0Z" style="opacity: 0.7; stroke-width: 1.5px; fill: rgb(42, 120, 214); fill-opacity: 1; stroke: rgb(255, 255, 255); stroke-opacity: 1;"/><path class="point plotly-customdata" transform="translate(64.76,53.06)" d="M14,0A14,14 0 1,1 0,-14A14,14 0 0,1 14,0Z" style="opacity: 0.7; stroke-width: 1.5px; fill: rgb(42, 120, 214); fill-opacity: 1; stroke: rgb(255, 255, 255); stroke-opacity: 1;"/><path class="point plotly-customdata" transform="translate(123.18,59.22)" d="M9.37,0A9.37,9.37 0 1,1 0,-9.37A9.37,9.37 0 0,1 9.37,0Z" style="opacity: 0.7; stroke-width: 1.5px; fill: rgb(42, 120, 214); fill-opacity: 1; stroke: rgb(255, 255, 255); stroke-opacity: 1;"/><path class="point plotly-customdata" transform="translate(200.52,168.22)" d="M13.52,0A13.52,13.52 0 1,1 0,-13.52A13.52,13.52 0 0,1 13.52,0Z" style="opacity: 0.7; stroke-width: 1.5px; fill: rgb(42, 120, 214); fill-opacity: 1; stroke: rgb(255, 255, 255); stroke-opacity: 1;"/><path class="point plotly-customdata" transform="translate(315,220.92)" d="M9.12,0A9.12,9.12 0 1,1 0,-9.12A9.12,9.12 0 0,1 9.12,0Z" style="opacity: 0.7; stroke-width: 1.5px; fill: rgb(42, 120, 214); fill-opacity: 1; stroke: rgb(255, 255, 255); stroke-opacity: 1;"/><path class="point plotly-customdata" transform="translate(408.09,255.46)" d="M10.21,0A10.21,10.21 0 1,1 0,-10.21A10.21,10.21 0 0,1 10.21,0Z" style="opacity: 0.7; stroke-width: 1.5px; fill: rgb(42, 120, 214); fill-opacity: 1; stroke: rgb(255, 255, 255); stroke-opacity: 1;"/><path class="point plotly-customdata" transform="translate(494.8,270.28)" d="M11.34,0A11.34,11.34 0 1,1 0,-11.34A11.34,11.34 0 0,1 11.34,0Z" style="opacity: 0.7; stroke-width: 1.5px; fill: rgb(42, 120, 214); fill-opacity: 1; stroke: rgb(255, 255, 255); stroke-opacity: 1;"/><path class="point plotly-customdata" transform="translate(586.55,258.63)" d="M8.2,0A8.2,8.2 0 1,1 0,-8.2A8.2,8.2 0 0,1 8.2,0Z" style="opacity: 0.7; stroke-width: 1.5px; fill: rgb(42, 120, 214); fill-opacity: 1; stroke: rgb(255, 255, 255); stroke-opacity: 1;"/><path class="point plotly-customdata" transform="translate(637.09,276.99)" d="M8.32,0A8.32,8.32 0 1,1 0,-8.32A8.32,8.32 0 0,1 8.32,0Z" style="opacity: 0.7; stroke-width: 1.5px; fill: rgb(42, 120, 214); fill-opacity: 1; stroke: rgb(255, 255, 255); stroke-opacity: 1;"/><path class="point plotly-customdata" transform="translate(674.65,345.7)" d="M7.96,0A7.96,7.96 0 1,1 0,-7.96A7.96,7.96 0 0,1 7.96,0Z" style="opacity: 0.7; stroke-width: 1.5px; fill: rgb(42, 120, 214); fill-opacity: 1; stroke: rgb(255, 255, 255); stroke-opacity: 1;"/><path class="point plotly-customdata" transform="translate(689,399.89)" d="M7.09,0A7.09,7.09 0 1,1 0,-7.09A7.09,7.09 0 0,1 7.09,0Z" style="opacity: 0.7; stroke-width: 1.5px; fill: rgb(42, 120, 214); fill-opacity: 1; stroke: rgb(255, 255, 255); stroke-opacity: 1;"/></g><g class="text"/></g><g class="trace scatter tracea1c430" style="stroke-miterlimit: 2; opacity: 1;"><g class="fills" clip-path="url(#clip74ec9cxyplot)"/><g class="errorbars"/><g class="lines"/><g class="points" clip-path="url(#clip74ec9cxyplot)"/><g class="text" clip-path="url(#clip74ec9cxyplot)"/></g><g class="trace scatter tracee6a46b" style="stroke-miterlimit: 2; opacity: 1;"><g class="fills" clip-path="url(#clip74ec9cxyplot)"/><g class="errorbars"/><g class="lines"><path class="js-line" d="M218.78,214.54L226.46,283.92L255.82,205.23L280.03,347.46L285.64,312.56L322.81,354.61L353.42,254.23" clip-path="url(#clip74ec9cxyplot)" style="vector-effect: none; fill: none; stroke: rgb(196, 196, 192); stroke-opacity: 1; stroke-width: 1.5px; opacity: 1;"/></g><g class="points"><path class="point plotly-customdata" transform="translate(218.78,214.54)" d="M13.65,0A13.65,13.65 0 1,1 0,-13.65A13.65,13.65 0 0,1 13.65,0Z" style="opacity: 0.7; stroke-width: 1.5px; fill: rgb(74, 58, 167); fill-opacity: 1; stroke: rgb(255, 255, 255); stroke-opacity: 1;"/><path class="point plotly-customdata" transform="translate(226.46,283.92)" d="M12.98,0A12.98,12.98 0 1,1 0,-12.98A12.98,12.98 0 0,1 12.98,0Z" style="opacity: 0.7; stroke-width: 1.5px; fill: rgb(74, 58, 167); fill-opacity: 1; stroke: rgb(255, 255, 255); stroke-opacity: 1;"/><path class="point plotly-customdata" transform="translate(255.82,205.23)" d="M9.68,0A9.68,9.68 0 1,1 0,-9.68A9.68,9.68 0 0,1 9.68,0Z" style="opacity: 0.7; stroke-width: 1.5px; fill: rgb(74, 58, 167); fill-opacity: 1; stroke: rgb(255, 255, 255); stroke-opacity: 1;"/><path class="point plotly-customdata" transform="translate(280.03,347.46)" d="M13.07,0A13.07,13.07 0 1,1 0,-13.07A13.07,13.07 0 0,1 13.07,0Z" style="opacity: 0.7; stroke-width: 1.5px; fill: rgb(74, 58, 167); fill-opacity: 1; stroke: rgb(255, 255, 255); stroke-opacity: 1;"/><path class="point plotly-customdata" transform="translate(285.64,312.56)" d="M12.77,0A12.77,12.77 0 1,1 0,-12.77A12.77,12.77 0 0,1 12.77,0Z" style="opacity: 0.7; stroke-width: 1.5px; fill: rgb(74, 58, 167); fill-opacity: 1; stroke: rgb(255, 255, 255); stroke-opacity: 1;"/><path class="point plotly-customdata" transform="translate(322.81,354.61)" d="M10.47,0A10.47,10.47 0 1,1 0,-10.47A10.47,10.47 0 0,1 10.47,0Z" style="opacity: 0.7; stroke-width: 1.5px; fill: rgb(74, 58, 167); fill-opacity: 1; stroke: rgb(255, 255, 255); stroke-opacity: 1;"/><path class="point plotly-customdata" transform="translate(353.42,254.23)" d="M9.31,0A9.31,9.31 0 1,1 0,-9.31A9.31,9.31 0 0,1 9.31,0Z" style="opacity: 0.7; stroke-width: 1.5px; fill: rgb(74, 58, 167); fill-opacity: 1; stroke: rgb(255, 255, 255); stroke-opacity: 1;"/></g><g class="text"/></g><g class="trace scatter tracec730b1" style="stroke-miterlimit: 2; opacity: 1;"><g class="fills" clip-path="url(#clip74ec9cxyplot)"/><g class="errorbars"/><g class="lines"/><g class="points" clip-path="url(#clip74ec9cxyplot)"/><g class="text" clip-path="url(#clip74ec9cxyplot)"/></g><g class="trace scatter trace9672cf" style="stroke-miterlimit: 2; opacity: 1;"><g class="fills" clip-path="url(#clip74ec9cxyplot)"/><g class="errorbars"/><g class="lines"><path class="js-line" d="M246.45,418.09L405.58,421.53L532.18,432.1L561.22,427.84L612.44,417.25" clip-path="url(#clip74ec9cxyplot)" style="vector-effect: none; fill: none; stroke: rgb(196, 196, 192); stroke-opacity: 1; stroke-width: 1.5px; opacity: 1;"/></g><g class="points"><path class="point plotly-customdata" transform="translate(246.45,418.09)" d="M13.8,0A13.8,13.8 0 1,1 0,-13.8A13.8,13.8 0 0,1 13.8,0Z" style="opacity: 0.7; stroke-width: 1.5px; fill: rgb(27, 175, 122); fill-opacity: 1; stroke: rgb(255, 255, 255); stroke-opacity: 1;"/><path class="point plotly-customdata" transform="translate(405.58,421.53)" d="M13.65,0A13.65,13.65 0 1,1 0,-13.65A13.65,13.65 0 0,1 13.65,0Z" style="opacity: 0.7; stroke-width: 1.5px; fill: rgb(27, 175, 122); fill-opacity: 1; stroke: rgb(255, 255, 255); stroke-opacity: 1;"/><path class="point plotly-customdata" transform="translate(532.18,432.1)" d="M13.49,0A13.49,13.49 0 1,1 0,-13.49A13.49,13.49 0 0,1 13.49,0Z" style="opacity: 0.7; stroke-width: 1.5px; fill: rgb(27, 175, 122); fill-opacity: 1; stroke: rgb(255, 255, 255); stroke-opacity: 1;"/><path class="point plotly-customdata" transform="translate(561.22,427.84)" d="M9.48,0A9.48,9.48 0 1,1 0,-9.48A9.48,9.48 0 0,1 9.48,0Z" style="opacity: 0.7; stroke-width: 1.5px; fill: rgb(27, 175, 122); fill-opacity: 1; stroke: rgb(255, 255, 255); stroke-opacity: 1;"/><path class="point plotly-customdata" transform="translate(612.44,417.25)" d="M3,0A3,3 0 1,1 0,-3A3,3 0 0,1 3,0Z" style="opacity: 0.7; stroke-width: 1.5px; fill: rgb(27, 175, 122); fill-opacity: 1; stroke: rgb(255, 255, 255); stroke-opacity: 1;"/></g><g class="text"/></g><g class="trace scatter trace909f60" style="stroke-miterlimit: 2; opacity: 1;"><g class="fills" clip-path="url(#clip74ec9cxyplot)"/><g class="errorbars"/><g class="lines"/><g class="points" clip-path="url(#clip74ec9cxyplot)"/><g class="text" clip-path="url(#clip74ec9cxyplot)"/></g><g class="trace scatter trace75bb06" style="stroke-miterlimit: 2; opacity: 1;"><g class="fills" clip-path="url(#clip74ec9cxyplot)"/><g class="errorbars"/><g class="lines"/><g class="points" clip-path="url(#clip74ec9cxyplot)"/><g class="text" clip-path="url(#clip74ec9cxyplot)"/></g><g class="trace scatter trace9ea9da" style="stroke-miterlimit: 2; opacity: 1;"><g class="fills" clip-path="url(#clip74ec9cxyplot)"/><g class="errorbars"/><g class="lines"/><g class="points" clip-path="url(#clip74ec9cxyplot)"/><g class="text" clip-path="url(#clip74ec9cxyplot)"/></g><g class="trace scatter trace280fb2" style="stroke-miterlimit: 2; opacity: 1;"><g class="fills" clip-path="url(#clip74ec9cxyplot)"/><g class="errorbars"/><g class="lines"/><g class="points" clip-path="url(#clip74ec9cxyplot)"/><g class="text" clip-path="url(#clip74ec9cxyplot)"/></g></g></g><g class="overplot"/><path class="xlines-above crisp" d="M81,580.5H823" style="fill: none; stroke-width: 1px; stroke: rgb(232, 232, 230); stroke-opacity: 1;"/><path class="ylines-above crisp" d="M81.5,110V580" style="fill: none; stroke-width: 1px; stroke: rgb(232, 232, 230); stroke-opacity: 1;"/><g class="overlines-above"/><g class="xaxislayer-above"><path class="xtick ticks crisp" d="M0,581v5" transform="translate(124.03999999999999,0)" style="stroke: rgb(232, 232, 230); stroke-opacity: 1; stroke-width: 1px;"/><path class="xtick ticks crisp" d="M0,581v5" transform="translate(172.68,0)" style="stroke: rgb(232, 232, 230); stroke-opacity: 1; stroke-width: 1px;"/><path class="xtick ticks crisp" d="M0,581v5" transform="translate(213.81,0)" style="stroke: rgb(232, 232, 230); stroke-opacity: 1; stroke-width: 1px;"/><path class="xtick ticks crisp" d="M0,581v5" transform="translate(249.44,0)" style="stroke: rgb(232, 232, 230); stroke-opacity: 1; stroke-width: 1px;"/><path class="xtick ticks crisp" d="M0,581v5" transform="translate(280.86,0)" style="stroke: rgb(232, 232, 230); stroke-opacity: 1; stroke-width: 1px;"/><path class="xtick ticks crisp" d="M0,581v5" transform="translate(308.97,0)" style="stroke: rgb(232, 232, 230); stroke-opacity: 1; stroke-width: 1px;"/><path class="xtick ticks crisp" d="M0,581v5" transform="translate(493.9,0)" style="stroke: rgb(232, 232, 230); stroke-opacity: 1; stroke-width: 1px;"/><path class="xtick ticks crisp" d="M0,581v5" transform="translate(602.08,0)" style="stroke: rgb(232, 232, 230); stroke-opacity: 1; stroke-width: 1px;"/><path class="xtick ticks crisp" d="M0,581v5" transform="translate(678.83,0)" style="stroke: rgb(232, 232, 230); stroke-opacity: 1; stroke-width: 1px;"/><path class="xtick ticks crisp" d="M0,581v5" transform="translate(738.37,0)" style="stroke: rgb(232, 232, 230); stroke-opacity: 1; stroke-width: 1px;"/><path class="xtick ticks crisp" d="M0,581v5" transform="translate(787.01,0)" style="stroke: rgb(232, 232, 230); stroke-opacity: 1; stroke-width: 1px;"/><g class="xtick"><text text-anchor="middle" x="0" y="600.4" transform="translate(124.03999999999999,0)" style="font-family: Helvetica, Arial, sans-serif; font-size: 12px; fill: rgb(107, 107, 104); fill-opacity: 1; white-space: pre; opacity: 1;">5</text></g><g class="xtick"><text text-anchor="middle" x="0" y="600.4" style="font-family: Helvetica, Arial, sans-serif; font-size: 12px; fill: rgb(107, 107, 104); fill-opacity: 1; white-space: pre; opacity: 1;" transform="translate(172.68,0)">6</text></g><g class="xtick"><text text-anchor="middle" x="0" y="600.4" style="font-family: Helvetica, Arial, sans-serif; font-size: 12px; fill: rgb(107, 107, 104); fill-opacity: 1; white-space: pre; opacity: 1;" transform="translate(213.81,0)">7</text></g><g class="xtick"><text text-anchor="middle" x="0" y="600.4" style="font-family: Helvetica, Arial, sans-serif; font-size: 12px; fill: rgb(107, 107, 104); fill-opacity: 1; white-space: pre; opacity: 1;" transform="translate(249.44,0)">8</text></g><g class="xtick"><text text-anchor="middle" x="0" y="600.4" style="font-family: Helvetica, Arial, sans-serif; font-size: 12px; fill: rgb(107, 107, 104); fill-opacity: 1; white-space: pre; opacity: 1;" transform="translate(280.86,0)">9</text></g><g class="xtick"><text text-anchor="middle" x="3" y="606.4" style="font-family: Helvetica, Arial, sans-serif; font-size: 12px; fill: rgb(107, 107, 104); fill-opacity: 1; white-space: pre; opacity: 1;" transform="translate(308.97,0)">10</text></g><g class="xtick"><text text-anchor="middle" x="0" y="600.4" style="font-family: Helvetica, Arial, sans-serif; font-size: 12px; fill: rgb(107, 107, 104); fill-opacity: 1; white-space: pre; opacity: 1;" transform="translate(493.9,0)">20</text></g><g class="xtick"><text text-anchor="middle" x="0" y="600.4" style="font-family: Helvetica, Arial, sans-serif; font-size: 12px; fill: rgb(107, 107, 104); fill-opacity: 1; white-space: pre; opacity: 1;" transform="translate(602.08,0)">30</text></g><g class="xtick"><text text-anchor="middle" x="0" y="600.4" style="font-family: Helvetica, Arial, sans-serif; font-size: 12px; fill: rgb(107, 107, 104); fill-opacity: 1; white-space: pre; opacity: 1;" transform="translate(678.83,0)">40</text></g><g class="xtick"><text text-anchor="middle" x="0" y="600.4" style="font-family: Helvetica, Arial, sans-serif; font-size: 12px; fill: rgb(107, 107, 104); fill-opacity: 1; white-space: pre; opacity: 1;" transform="translate(738.37,0)">50</text></g><g class="xtick"><text text-anchor="middle" x="0" y="600.4" style="font-family: Helvetica, Arial, sans-serif; font-size: 12px; fill: rgb(107, 107, 104); fill-opacity: 1; white-space: pre; opacity: 1;" transform="translate(787.01,0)">60</text></g></g><g class="yaxislayer-above"><path class="ytick ticks crisp" d="M81,0h-5" transform="translate(0,579.65)" style="stroke: rgb(232, 232, 230); stroke-opacity: 1; stroke-width: 1px;"/><path class="ytick ticks crisp" d="M81,0h-5" transform="translate(0,509)" style="stroke: rgb(232, 232, 230); stroke-opacity: 1; stroke-width: 1px;"/><path class="ytick ticks crisp" d="M81,0h-5" transform="translate(0,438.36)" style="stroke: rgb(232, 232, 230); stroke-opacity: 1; stroke-width: 1px;"/><path class="ytick ticks crisp" d="M81,0h-5" transform="translate(0,367.72)" style="stroke: rgb(232, 232, 230); stroke-opacity: 1; stroke-width: 1px;"/><path class="ytick ticks crisp" d="M81,0h-5" transform="translate(0,297.07)" style="stroke: rgb(232, 232, 230); stroke-opacity: 1; stroke-width: 1px;"/><path class="ytick ticks crisp" d="M81,0h-5" transform="translate(0,226.43)" style="stroke: rgb(232, 232, 230); stroke-opacity: 1; stroke-width: 1px;"/><path class="ytick ticks crisp" d="M81,0h-5" transform="translate(0,155.78)" style="stroke: rgb(232, 232, 230); stroke-opacity: 1; stroke-width: 1px;"/><g class="ytick"><text text-anchor="end" x="73.6" y="4.199999999999999" transform="translate(0,579.65)" style="font-family: Helvetica, Arial, sans-serif; font-size: 12px; fill: rgb(107, 107, 104); fill-opacity: 1; white-space: pre; opacity: 1;">2,000</text></g><g class="ytick"><text text-anchor="end" x="73.6" y="4.199999999999999" style="font-family: Helvetica, Arial, sans-serif; font-size: 12px; fill: rgb(107, 107, 104); fill-opacity: 1; white-space: pre; opacity: 1;" transform="translate(0,509)">4,000</text></g><g class="ytick"><text text-anchor="end" x="73.6" y="4.199999999999999" style="font-family: Helvetica, Arial, sans-serif; font-size: 12px; fill: rgb(107, 107, 104); fill-opacity: 1; white-space: pre; opacity: 1;" transform="translate(0,438.36)">6,000</text></g><g class="ytick"><text text-anchor="end" x="73.6" y="4.199999999999999" style="font-family: Helvetica, Arial, sans-serif; font-size: 12px; fill: rgb(107, 107, 104); fill-opacity: 1; white-space: pre; opacity: 1;" transform="translate(0,367.72)">8,000</text></g><g class="ytick"><text text-anchor="end" x="73.6" y="4.199999999999999" style="font-family: Helvetica, Arial, sans-serif; font-size: 12px; fill: rgb(107, 107, 104); fill-opacity: 1; white-space: pre; opacity: 1;" transform="translate(0,297.07)">10,000</text></g><g class="ytick"><text text-anchor="end" x="73.6" y="4.199999999999999" style="font-family: Helvetica, Arial, sans-serif; font-size: 12px; fill: rgb(107, 107, 104); fill-opacity: 1; white-space: pre; opacity: 1;" transform="translate(0,226.43)">12,000</text></g><g class="ytick"><text text-anchor="end" x="73.6" y="4.199999999999999" style="font-family: Helvetica, Arial, sans-serif; font-size: 12px; fill: rgb(107, 107, 104); fill-opacity: 1; white-space: pre; opacity: 1;" transform="translate(0,155.78)">14,000</text></g></g><g class="overaxes-above"/></g></g><g class="polarlayer"/><g class="smithlayer"/><g class="ternarylayer"/><g class="geolayer"/><g class="funnelarealayer"/><g class="pielayer"/><g class="iciclelayer"/><g class="treemaplayer"/><g class="sunburstlayer"/><g class="glimages"/><defs id="topdefs-74ec9c"><g class="clips"/><clipPath id="legend74ec9c"><rect width="150" height="174" x="0" y="0"/></clipPath></defs><g class="layer-above"><g class="imagelayer"/><g class="shapelayer"/></g><g class="infolayer"><g class="legend" pointer-events="all" transform="translate(837.82,110)"><rect class="bg" shape-rendering="crispEdges" width="150" height="174" x="0" y="0" style="stroke: rgb(68, 68, 68); stroke-opacity: 1; fill: rgb(255, 255, 255); fill-opacity: 1; stroke-width: 0px;"/><g class="scrollbox" transform="" clip-path="url(#legend74ec9c)"><g class="groups" transform=""><g class="traces" transform="translate(0,14.950000000000001)" style="opacity: 1;"><text class="legendtext" text-anchor="start" x="5" y="5.07" style="font-family: Helvetica, Arial, sans-serif; font-size: 13px; fill: rgb(28, 28, 27); fill-opacity: 1; white-space: pre;">Compressor</text><g class="layers"><g class="legendfill"/><g class="legendlines"/><g class="legendsymbols"><g class="legendpoints"/></g></g><rect class="legendtoggle" x="0" y="-9.950000000000001" width="144.734375" height="19.900000000000002" style="fill: rgb(0, 0, 0); fill-opacity: 0;"/></g><g class="traces" transform="translate(0,34.400000000000006)" style="opacity: 1;"><text class="legendtext" text-anchor="start" x="40" y="4.680000000000001" style="font-family: Helvetica, Arial, sans-serif; font-size: 12px; fill: rgb(28, 28, 27); fill-opacity: 1; white-space: pre;">OpenZL (trained)</text><g class="layers" style="opacity: 1;"><g class="legendfill"/><g class="legendlines"><path class="js-line" d="M5,0h30" style="fill: none; stroke: rgb(196, 196, 192); stroke-opacity: 1; stroke-width: 1.5px;"/></g><g class="legendsymbols"><g class="legendpoints"><path class="scatterpts" transform="translate(20,0)" d="M6,0A6,6 0 1,1 0,-6A6,6 0 0,1 6,0Z" style="opacity: 1; stroke-width: 2px; fill: rgb(42, 120, 214); fill-opacity: 1; stroke: rgb(255, 255, 255); stroke-opacity: 1;"/></g></g></g><rect class="legendtoggle" x="0" y="-9.5" width="144.734375" height="19" style="fill: rgb(0, 0, 0); fill-opacity: 0;"/></g><g class="traces" transform="translate(0,53.400000000000006)" style="opacity: 1;"><text class="legendtext" text-anchor="start" x="40" y="4.680000000000001" style="font-family: Helvetica, Arial, sans-serif; font-size: 12px; fill: rgb(28, 28, 27); fill-opacity: 1; white-space: pre;">OpenZL (untrained)</text><g class="layers" style="opacity: 1;"><g class="legendfill"/><g class="legendlines"><path class="js-line" d="M5,0h30" style="fill: none; stroke: rgb(196, 196, 192); stroke-opacity: 1; stroke-width: 1.5px;"/></g><g class="legendsymbols"><g class="legendpoints"><path class="scatterpts" transform="translate(20,0)" d="M6,0A6,6 0 1,1 0,-6A6,6 0 0,1 6,0Z" style="opacity: 1; stroke-width: 2px; fill: rgb(74, 58, 167); fill-opacity: 1; stroke: rgb(255, 255, 255); stroke-opacity: 1;"/></g></g></g><rect class="legendtoggle" x="0" y="-9.5" width="144.734375" height="19" style="fill: rgb(0, 0, 0); fill-opacity: 0;"/></g><g class="traces" transform="translate(0,72.4)" style="opacity: 1;"><text class="legendtext" text-anchor="start" x="40" y="4.680000000000001" style="font-family: Helvetica, Arial, sans-serif; font-size: 12px; fill: rgb(28, 28, 27); fill-opacity: 1; white-space: pre;">zstd</text><g class="layers" style="opacity: 1;"><g class="legendfill"/><g class="legendlines"><path class="js-line" d="M5,0h30" style="fill: none; stroke: rgb(196, 196, 192); stroke-opacity: 1; stroke-width: 1.5px;"/></g><g class="legendsymbols"><g class="legendpoints"><path class="scatterpts" transform="translate(20,0)" d="M6,0A6,6 0 1,1 0,-6A6,6 0 0,1 6,0Z" style="opacity: 1; stroke-width: 2px; fill: rgb(27, 175, 122); fill-opacity: 1; stroke: rgb(255, 255, 255); stroke-opacity: 1;"/></g></g></g><rect class="legendtoggle" x="0" y="-9.5" width="144.734375" height="19" style="fill: rgb(0, 0, 0); fill-opacity: 0;"/></g></g><g class="groups" transform="translate(0,10)"><g class="traces" transform="translate(0,91.85000000000001)" style="opacity: 1;"><text class="legendtext" text-anchor="start" x="5" y="5.07" style="font-family: Helvetica, Arial, sans-serif; font-size: 13px; fill: rgb(28, 28, 27); fill-opacity: 1; white-space: pre;">Compression speed</text><g class="layers"><g class="legendfill"/><g class="legendlines"/><g class="legendsymbols"><g class="legendpoints"/></g></g><rect class="legendtoggle" x="0" y="-9.950000000000001" width="144.734375" height="19.900000000000002" style="fill: rgb(0, 0, 0); fill-opacity: 0;"/></g><g class="traces" transform="translate(0,111.30000000000001)" style="opacity: 1;"><text class="legendtext" text-anchor="start" x="40" y="4.680000000000001" style="font-family: Helvetica, Arial, sans-serif; font-size: 12px; fill: rgb(28, 28, 27); fill-opacity: 1; white-space: pre;">10 MB/s</text><g class="layers" style="opacity: 1;"><g class="legendfill"/><g class="legendlines"/><g class="legendsymbols"><g class="legendpoints"><path class="scatterpts" transform="translate(20,0)" d="M3,0A3,3 0 1,1 0,-3A3,3 0 0,1 3,0Z" style="opacity: 1; stroke-width: 1.5px; fill: rgb(107, 107, 104); fill-opacity: 1; stroke: rgb(255, 255, 255); stroke-opacity: 1;"/></g></g></g><rect class="legendtoggle" x="0" y="-9.5" width="144.734375" height="19" style="fill: rgb(0, 0, 0); fill-opacity: 0;"/></g><g class="traces" transform="translate(0,130.3)" style="opacity: 1;"><text class="legendtext" text-anchor="start" x="40" y="4.680000000000001" style="font-family: Helvetica, Arial, sans-serif; font-size: 12px; fill: rgb(28, 28, 27); fill-opacity: 1; white-space: pre;">100 MB/s</text><g class="layers" style="opacity: 1;"><g class="legendfill"/><g class="legendlines"/><g class="legendsymbols"><g class="legendpoints"><path class="scatterpts" transform="translate(20,0)" d="M7.78,0A7.78,7.78 0 1,1 0,-7.78A7.78,7.78 0 0,1 7.78,0Z" style="opacity: 1; stroke-width: 1.5px; fill: rgb(107, 107, 104); fill-opacity: 1; stroke: rgb(255, 255, 255); stroke-opacity: 1;"/></g></g></g><rect class="legendtoggle" x="0" y="-9.5" width="144.734375" height="19" style="fill: rgb(0, 0, 0); fill-opacity: 0;"/></g><g class="traces" transform="translate(0,149.3)" style="opacity: 1;"><text class="legendtext" text-anchor="start" x="40" y="4.680000000000001" style="font-family: Helvetica, Arial, sans-serif; font-size: 12px; fill: rgb(28, 28, 27); fill-opacity: 1; white-space: pre;">1,000 MB/s</text><g class="layers" style="opacity: 1;"><g class="legendfill"/><g class="legendlines"/><g class="legendsymbols"><g class="legendpoints"><path class="scatterpts" transform="translate(20,0)" d="M8,0A8,8 0 1,1 0,-8A8,8 0 0,1 8,0Z" style="opacity: 1; stroke-width: 1.5px; fill: rgb(107, 107, 104); fill-opacity: 1; stroke: rgb(255, 255, 255); stroke-opacity: 1;"/></g></g></g><rect class="legendtoggle" x="0" y="-9.5" width="144.734375" height="19" style="fill: rgb(0, 0, 0); fill-opacity: 0;"/></g></g></g><rect class="scrollbar" rx="20" ry="3" width="0" height="0" x="0" y="0" style="fill: rgb(128, 139, 164); fill-opacity: 1;"/></g><g class="g-gtitle"><text class="gtitle" x="500" y="55" text-anchor="middle" dy="0em" style="font-family: Helvetica, Arial, sans-serif; font-size: 18px; fill: rgb(28, 28, 27); opacity: 1; font-weight: normal; white-space: pre;">zstd.log (trained): Decompression Speed vs. Compression Ratio</text></g><g class="g-xtitle"><text class="xtitle" x="452.5" y="633.70625" text-anchor="middle" style="font-family: Helvetica, Arial, sans-serif; font-size: 14px; fill: rgb(28, 28, 27); opacity: 1; font-weight: normal; white-space: pre;">Compression Ratio</text></g><g class="g-ytitle" transform="translate(0.4091796875,0)"><text class="ytitle" transform="rotate(-90,12.590625000000003,345)" x="12.590625000000003" y="345" text-anchor="middle" style="font-family: Helvetica, Arial, sans-serif; font-size: 14px; fill: rgb(28, 28, 27); opacity: 1; font-weight: normal; white-space: pre;">Decompression Speed (MB/s)</text></g></g></svg>